<svg width="72" height="28" viewBox="0 0 72 28" fill="none" xmlns="http://www.w3.org/2000/svg">
<g clip-path="url(#clip0_9028_2707)">
<path d="M17.0905 0C14.2787 0 11.5821 1.11697 9.59391 3.10519L3.10519 9.59391C1.11697 11.5821 0 14.2787 0 17.0905C0 22.9458 4.74659 27.6923 10.6018 27.6923C13.4136 27.6923 16.1102 26.5753 18.0984 24.5871L22.5867 20.0988C22.5867 20.0987 22.5868 20.0989 22.5867 20.0988L35.664 7.02148C36.6136 6.07192 37.9014 5.53846 39.2443 5.53846C41.4926 5.53846 43.3986 7.00376 44.0595 9.03145L48.1866 4.90427C46.3038 1.95539 43.0025 0 39.2443 0C36.4326 0 33.736 1.11697 31.7478 3.10519L14.1822 20.6708C13.2326 21.6204 11.9447 22.1538 10.6018 22.1538C7.80539 22.1538 5.53846 19.887 5.53846 17.0905C5.53846 15.7476 6.07192 14.4597 7.02148 13.5102L13.5102 7.02148C14.4597 6.07192 15.7476 5.53846 17.0905 5.53846C19.3388 5.53846 21.2448 7.00383 21.9056 9.03158L26.0329 4.90437C24.1501 1.95545 20.8487 0 17.0905 0Z" fill="#5E30BB"/>
<path d="M36.3353 20.6708C35.3857 21.6204 34.0978 22.1538 32.7549 22.1538C30.507 22.1538 28.6011 20.6889 27.9401 18.6615L23.813 22.7886C25.6959 25.7371 28.9971 27.6923 32.7549 27.6923C35.5667 27.6923 38.2633 26.5753 40.2515 24.587L57.8171 7.02145C58.7667 6.07189 60.0546 5.53843 61.3975 5.53843C64.1939 5.53843 66.4608 7.80536 66.4608 10.6018C66.4608 11.9447 65.9274 13.2326 64.9778 14.1821L58.4891 20.6708C57.5395 21.6204 56.2517 22.1538 54.9088 22.1538C52.6606 22.1538 50.7547 20.6886 50.0937 18.6611L45.9667 22.7882C47.8495 25.737 51.1507 27.6923 54.9088 27.6923C57.7206 27.6923 60.4171 26.5753 62.4054 24.587L68.894 18.0984C70.8823 16.1102 71.9993 13.4136 71.9993 10.6018C71.9993 4.74656 67.2527 -3.05176e-05 61.3975 -3.05176e-05C58.5857 -3.05176e-05 55.8891 1.11694 53.9009 3.10516L36.3353 20.6708Z" fill="#5E30BB"/>
</g>
<defs>
<clipPath id="clip0_9028_2707">
<rect width="72" height="27.6923" fill="white"/>
</clipPath>
</defs>
</svg>
