<svg width="100%" height="100%" viewBox="0 0 20 20" fill="none" xmlns="http://www.w3.org/2000/svg">
<path d="M8.58333 17.5C8.72282 17.7537 8.92787 17.9652 9.17708 18.1126C9.42628 18.26 9.71048 18.3377 10 18.3377C10.2895 18.3377 10.5737 18.26 10.8229 18.1126C11.0721 17.9652 11.2772 17.7537 11.4167 17.5M5 6.66663C5 5.34054 5.52678 4.06877 6.46447 3.13109C7.40215 2.19341 8.67392 1.66663 10 1.66663C11.3261 1.66663 12.5979 2.19341 13.5355 3.13109C14.4732 4.06877 15 5.34054 15 6.66663C15 12.5 17.5 14.1666 17.5 14.1666H2.5C2.5 14.1666 5 12.5 5 6.66663Z" stroke="currentColor" stroke-width="1.5" stroke-linecap="round" stroke-linejoin="round"/>
</svg>
