<svg width="100%" height="100%" viewBox="0 0 16 17" fill="none" xmlns="http://www.w3.org/2000/svg">
<path d="M11.25 3.5H11.25C11.7141 3.5 12.1593 3.68437 12.4874 4.01256C12.8156 4.34075 13 4.78587 13 5.25V5.25C13 5.71413 12.8156 6.15925 12.4874 6.48744C12.1592 6.81563 11.7141 7 11.25 7H9.5V5.25C9.5 4.78587 9.68437 4.34075 10.0126 4.01256C10.3408 3.68437 10.7859 3.5 11.25 3.5V3.5Z" stroke="currentColor" stroke-width="1.5" stroke-linecap="round" stroke-linejoin="round"/>
<path d="M6.5 7H4.75C4.28587 7 3.84075 6.81563 3.51256 6.48744C3.18437 6.15925 3 5.71413 3 5.25V5.25C3 4.78587 3.18437 4.34075 3.51256 4.01256C3.84075 3.68437 4.28587 3.5 4.75 3.5H4.75C5.21413 3.5 5.65925 3.68437 5.98744 4.01256C6.31563 4.34075 6.5 4.78587 6.5 5.25V7Z" stroke="currentColor" stroke-width="1.5" stroke-linecap="round" stroke-linejoin="round"/>
<path d="M9.5 10H11.25C11.7141 10 12.1592 10.1844 12.4874 10.5126C12.8156 10.8408 13 11.2859 13 11.75V11.75C13 12.2141 12.8156 12.6593 12.4874 12.9874C12.1593 13.3156 11.7141 13.5 11.25 13.5H11.25C10.7859 13.5 10.3408 13.3156 10.0126 12.9874C9.68437 12.6592 9.5 12.2141 9.5 11.75V10Z" stroke="currentColor" stroke-width="1.5" stroke-linecap="round" stroke-linejoin="round"/>
<path d="M4.75 13.5H4.75C4.28587 13.5 3.84075 13.3156 3.51256 12.9874C3.18437 12.6593 3 12.2141 3 11.75V11.75C3 11.2859 3.18437 10.8408 3.51256 10.5126C3.84075 10.1844 4.28587 10 4.75 10H6.5V11.75C6.5 12.2141 6.31563 12.6592 5.98744 12.9874C5.65925 13.3156 5.21413 13.5 4.75 13.5V13.5Z" stroke="currentColor" stroke-width="1.5" stroke-linecap="round" stroke-linejoin="round"/>
<path d="M9.5 7H6.5V10H9.5V7Z" stroke="currentColor" stroke-width="1.5" stroke-linecap="round" stroke-linejoin="round"/>
</svg>
