<svg width="100%" height="100%" viewBox="0 0 20 20" fill="none" xmlns="http://www.w3.org/2000/svg">
<path d="M16.5832 11.25H3.4165C2.1665 11.25 1.6665 11.7833 1.6665 13.1083V16.475C1.6665 17.8 2.1665 18.3333 3.4165 18.3333H16.5832C17.8332 18.3333 18.3332 17.8 18.3332 16.475V13.1083C18.3332 11.7833 17.8332 11.25 16.5832 11.25Z" stroke="currentColor" stroke-width="1.5" stroke-linecap="round" stroke-linejoin="round"/>
<path d="M10.7498 1.66669H3.4165C2.1665 1.66669 1.6665 2.20002 1.6665 3.52502V6.89169C1.6665 8.21669 2.1665 8.75002 3.4165 8.75002H10.7498C11.9998 8.75002 12.4998 8.21669 12.4998 6.89169V3.52502C12.4998 2.20002 11.9998 1.66669 10.7498 1.66669Z" stroke="currentColor" stroke-width="1.5" stroke-linecap="round" stroke-linejoin="round"/>
</svg>
