<svg width="100%" height="100%" viewBox="0 0 20 20" fill="none" xmlns="http://www.w3.org/2000/svg">
<path d="M6.2334 15.2917L8.81673 17.2917C9.15006 17.625 9.90006 17.7917 10.4001 17.7917H13.5667C14.5667 17.7917 15.6501 17.0417 15.9001 16.0417L17.9001 9.95835C18.3167 8.79168 17.5667 7.79168 16.3167 7.79168H12.9834C12.4834 7.79168 12.0667 7.37501 12.1501 6.79168L12.5667 4.12501C12.7334 3.37501 12.2334 2.54168 11.4834 2.29168C10.8167 2.04168 9.9834 2.37501 9.65006 2.87501L6.2334 7.95835" stroke="currentColor" stroke-width="1.5" stroke-miterlimit="10"/>
<path d="M1.9834 15.2917V7.12502C1.9834 5.95835 2.4834 5.54169 3.65007 5.54169H4.4834C5.65006 5.54169 6.15007 5.95835 6.15007 7.12502V15.2917C6.15007 16.4584 5.65006 16.875 4.4834 16.875H3.65007C2.4834 16.875 1.9834 16.4584 1.9834 15.2917Z" stroke="currentColor" stroke-width="1.5" stroke-linecap="round" stroke-linejoin="round"/>
</svg>
