<svg width="100%" height="100%" viewBox="0 0 20 21" fill="none" xmlns="http://www.w3.org/2000/svg">
<path d="M10.1528 9.3288V12.2334H14.2716C14.0907 13.1675 13.548 13.9584 12.734 14.4902L15.2177 16.3789C16.6649 15.0698 17.4998 13.1471 17.4998 10.863C17.4998 10.3312 17.4511 9.81974 17.3606 9.32888L10.1528 9.3288Z" fill="#4285F4"/>
<path d="M3.32091 7.33112C2.79914 8.34017 2.5 9.47883 2.5 10.6925C2.5 11.9061 2.79914 13.0447 3.32091 14.0538C3.32091 14.0606 5.86735 12.1174 5.86735 12.1174C5.71429 11.6674 5.62382 11.1902 5.62382 10.6924C5.62382 10.1946 5.71429 9.71733 5.86735 9.26733L3.32091 7.33112Z" fill="#FBBC05"/>
<path d="M10.1529 6.1787C11.28 6.1787 12.2818 6.56051 13.0819 7.29689L15.2735 5.14918C13.9446 3.93555 12.2192 3.19232 10.1529 3.19232C7.16123 3.19232 4.58008 4.87642 3.3208 7.33099L5.86716 9.26736C6.47242 7.49461 8.16308 6.1787 10.1529 6.1787Z" fill="#EA4335"/>
<path d="M5.86387 12.1199L5.30368 12.5402L3.3208 14.0538C4.58008 16.5015 7.16107 18.1925 10.1527 18.1925C12.219 18.1925 13.9514 17.5243 15.2176 16.3788L12.7339 14.4902C12.052 14.9402 11.1824 15.2129 10.1527 15.2129C8.16292 15.2129 6.47233 13.897 5.867 12.1243L5.86387 12.1199Z" fill="#34A853"/>
</svg>
