<svg width="100%" height="100%" viewBox="0 0 20 20" fill="none" xmlns="http://www.w3.org/2000/svg">
<path d="M17.6584 6.7L15.0084 4.05001C14.0084 3.05001 12.6334 3.10003 11.9584 4.17503L10.4834 6.50835L15.2084 11.2333L17.5417 9.75837C18.5501 9.1167 18.6084 7.64167 17.6584 6.7Z" stroke="currentColor" stroke-width="1.5" stroke-linecap="round" stroke-linejoin="round"/>
<path d="M15.2082 11.225L15.4082 14.6583C15.5998 16.575 14.9332 17.2416 13.1165 17.4583L5.84985 18.3167C4.31652 18.4917 3.21651 17.3917 3.39985 15.8667L4.21651 8.96667" stroke="currentColor" stroke-width="1.5" stroke-linecap="round" stroke-linejoin="round"/>
<path d="M10.4832 6.50834L9.0249 6.41669" stroke="currentColor" stroke-width="1.5" stroke-linecap="round" stroke-linejoin="round"/>
<path d="M4.3999 17.3167L7.04991 14.6583" stroke="currentColor" stroke-width="1.5" stroke-linecap="round" stroke-linejoin="round"/>
<path d="M9.1665 5.41669C9.1665 5.75835 9.11651 6.10003 9.02484 6.4167C8.93317 6.75003 8.79984 7.05836 8.62484 7.35003C8.42484 7.68336 8.17484 7.98336 7.88318 8.23336C7.22484 8.81669 6.3665 9.16669 5.4165 9.16669C4.9915 9.16669 4.5915 9.10003 4.2165 8.9667C3.3665 8.68336 2.65817 8.10003 2.20817 7.35003C1.8665 6.78336 1.6665 6.11669 1.6665 5.41669C1.6665 4.23335 2.20817 3.17501 3.07484 2.49168C3.71651 1.97501 4.53317 1.66669 5.4165 1.66669C7.4915 1.66669 9.1665 3.34169 9.1665 5.41669Z" stroke="currentColor" stroke-width="1.5" stroke-miterlimit="10" stroke-linecap="round" stroke-linejoin="round"/>
<path d="M5.43311 6.81665V4.01666" stroke="currentColor" stroke-width="1.5" stroke-miterlimit="10" stroke-linecap="round" stroke-linejoin="round"/>
<path d="M6.8 5.41663H4" stroke="currentColor" stroke-width="1.5" stroke-miterlimit="10" stroke-linecap="round" stroke-linejoin="round"/>
</svg>
