<svg width="100%" height="100%" viewBox="0 0 20 21" fill="none" xmlns="http://www.w3.org/2000/svg">
<path d="M10 13C11.3807 13 12.5 11.8807 12.5 10.5C12.5 9.11929 11.3807 8 10 8C8.61929 8 7.5 9.11929 7.5 10.5C7.5 11.8807 8.61929 13 10 13Z" stroke="currentColor" stroke-width="1.5" stroke-miterlimit="10" stroke-linecap="round" stroke-linejoin="round"/>
<path d="M1.66675 11.2333V9.76666C1.66675 8.9 2.37508 8.18333 3.25008 8.18333C4.75841 8.18333 5.37508 7.11666 4.61675 5.80833C4.18341 5.05833 4.44175 4.08333 5.20008 3.65L6.64175 2.825C7.30008 2.43333 8.15008 2.66666 8.54175 3.325L8.63341 3.48333C9.38341 4.79166 10.6167 4.79166 11.3751 3.48333L11.4667 3.325C11.8584 2.66666 12.7084 2.43333 13.3667 2.825L14.8084 3.65C15.5667 4.08333 15.8251 5.05833 15.3917 5.80833C14.6334 7.11666 15.2501 8.18333 16.7584 8.18333C17.6251 8.18333 18.3417 8.89166 18.3417 9.76666V11.2333C18.3417 12.1 17.6334 12.8167 16.7584 12.8167C15.2501 12.8167 14.6334 13.8833 15.3917 15.1917C15.8251 15.95 15.5667 16.9167 14.8084 17.35L13.3667 18.175C12.7084 18.5667 11.8584 18.3333 11.4667 17.675L11.3751 17.5167C10.6251 16.2083 9.39175 16.2083 8.63341 17.5167L8.54175 17.675C8.15008 18.3333 7.30008 18.5667 6.64175 18.175L5.20008 17.35C4.44175 16.9167 4.18341 15.9417 4.61675 15.1917C5.37508 13.8833 4.75841 12.8167 3.25008 12.8167C2.37508 12.8167 1.66675 12.1 1.66675 11.2333Z" stroke="currentColor" stroke-width="1.5" stroke-miterlimit="10" stroke-linecap="round" stroke-linejoin="round"/>
</svg>
