<svg width="34" height="32" viewBox="0 0 34 32" fill="none" xmlns="http://www.w3.org/2000/svg">
<rect width="32" height="32" transform="translate(1)" fill="white" fill-opacity="0.3"/>
<g clip-path="url(#clip0_11030_1334)">
<path d="M8.54126 9.80646C7.28352 9.80646 6.0773 10.3061 5.18795 11.1954L2.28547 14.0979C1.39612 14.9873 0.896484 16.1935 0.896484 17.4512C0.896484 20.0704 3.01969 22.1936 5.6388 22.1936C6.89655 22.1936 8.10276 21.6939 8.99211 20.8045L10.9998 18.7969C10.9998 18.7969 10.9998 18.7968 10.9998 18.7969L16.8494 12.9472C17.2742 12.5225 17.8503 12.2839 18.4509 12.2839C19.4566 12.2839 20.3092 12.9393 20.6048 13.8463L22.4509 12.0002C21.6087 10.6811 20.132 9.80646 18.4509 9.80646C17.1932 9.80646 15.987 10.3061 15.0976 11.1954L7.24033 19.0528C6.81558 19.4775 6.23949 19.7161 5.6388 19.7161C4.38793 19.7161 3.3739 18.7021 3.3739 17.4512C3.3739 16.8505 3.61252 16.2745 4.03727 15.8497L6.93974 12.9472C7.36449 12.5225 7.94057 12.2839 8.54126 12.2839C9.54697 12.2839 10.3995 12.9394 10.6951 13.8464L12.5413 12.0002C11.6991 10.6812 10.2224 9.80646 8.54126 9.80646Z" fill="#47248C"/>
<path d="M17.1502 19.0528C16.7254 19.4775 16.1494 19.7161 15.5487 19.7161C14.5431 19.7161 13.6906 19.0609 13.3949 18.154L11.5488 20.0001C12.3911 21.319 13.8677 22.1936 15.5487 22.1936C16.8064 22.1936 18.0126 21.6939 18.902 20.8045L26.7593 12.9472C27.184 12.5225 27.7601 12.2839 28.3608 12.2839C29.6117 12.2839 30.6257 13.2979 30.6257 14.5488C30.6257 15.1495 30.3871 15.7255 29.9623 16.1503L27.0599 19.0528C26.6351 19.4775 26.059 19.7161 25.4583 19.7161C24.4527 19.7161 23.6002 19.0607 23.3045 18.1538L21.4584 19.9999C22.3006 21.3189 23.7773 22.1936 25.4583 22.1936C26.7161 22.1936 27.9223 21.6939 28.8117 20.8045L31.7141 17.9021C32.6035 17.0127 33.1031 15.8065 33.1031 14.5488C33.1031 11.9297 30.9799 9.80646 28.3608 9.80646C27.1031 9.80646 25.8968 10.3061 25.0075 11.1954L17.1502 19.0528Z" fill="#47248C"/>
</g>
<defs>
<clipPath id="clip0_11030_1334">
<rect width="32.2065" height="12.3871" fill="white" transform="translate(0.896484 9.80646)"/>
</clipPath>
</defs>
</svg>
